<?xml version="1.0" encoding="UTF-8" standalone="no"?>
<svg
   xmlns:dc="http://purl.org/dc/elements/1.1/"
   xmlns:cc="http://creativecommons.org/ns#"
   xmlns:rdf="http://www.w3.org/1999/02/22-rdf-syntax-ns#"
   xmlns:svg="http://www.w3.org/2000/svg"
   xmlns="http://www.w3.org/2000/svg"
   xmlns:sodipodi="http://sodipodi.sourceforge.net/DTD/sodipodi-0.dtd"
   xmlns:inkscape="http://www.inkscape.org/namespaces/inkscape"
   aria-hidden="true"
   data-prefix="far"
   data-icon="check-circle"
   role="img"
   viewBox="0 0 768 512"
   class="svg-inline--fa fa-check-circle fa-w-16 fa-2x"
   version="1.1"
   id="svg4"
   sodipodi:docname="done.svg"
   width="768"
   height="512"
   inkscape:version="0.92.1 r15371">
  <metadata
     id="metadata10">
    <rdf:RDF>
      <cc:Work
         rdf:about="">
        <dc:format>image/svg+xml</dc:format>
        <dc:type
           rdf:resource="http://purl.org/dc/dcmitype/StillImage" />
        <dc:title></dc:title>
      </cc:Work>
    </rdf:RDF>
  </metadata>
  <defs
     id="defs8" />
  <sodipodi:namedview
     pagecolor="#ffffff"
     bordercolor="#666666"
     borderopacity="1"
     objecttolerance="10"
     gridtolerance="10"
     guidetolerance="10"
     inkscape:pageopacity="0"
     inkscape:pageshadow="2"
     inkscape:window-width="1920"
     inkscape:window-height="1053"
     id="namedview6"
     showgrid="false"
     inkscape:zoom="0.4609375"
     inkscape:cx="262.50847"
     inkscape:cy="256"
     inkscape:window-x="0"
     inkscape:window-y="27"
     inkscape:window-maximized="1"
     inkscape:current-layer="svg4" />
  <path
     d="M 256,8 C 119.033,8 8,119.033 8,256 8,392.967 119.033,504 256,504 392.967,504 504,392.967 504,256 504,119.033 392.967,8 256,8 Z m 0,48 c 110.532,0 200,89.451 200,200 0,110.532 -89.451,200 -200,200 C 145.468,456 56,366.549 56,256 56,145.468 145.451,56 256,56 m 140.204,130.267 -22.536,-22.718 c -4.667,-4.705 -12.265,-4.736 -16.97,-0.068 L 215.346,303.697 155.554,243.42 c -4.667,-4.705 -12.265,-4.736 -16.97,-0.069 l -22.719,22.536 c -4.705,4.667 -4.736,12.265 -0.068,16.971 l 90.781,91.516 c 4.667,4.705 12.265,4.736 16.97,0.068 L 396.137,203.238 c 4.704,-4.668 4.734,-12.266 0.067,-16.971 z"
     class=""
     id="path2"
     style="fill:#ffffff"
     inkscape:connector-curvature="0" />
</svg>
